<mxfile host="app.diagrams.net" modified="2021-06-05T09:35:20.848Z" agent="5.0 (Windows NT 10.0; Win64; x64) AppleWebKit/537.36 (KHTML, like Gecko) Chrome/88.0.4324.182 Safari/537.36" etag="Uvp9eAebSgjVz1zvauCs" version="14.7.6" type="github">
  <diagram id="XkIlCbRDpIF7aDdu3Iqx" name="Page-1">
    <mxGraphModel dx="1023" dy="621" grid="1" gridSize="10" guides="1" tooltips="1" connect="1" arrows="1" fold="1" page="1" pageScale="1" pageWidth="3300" pageHeight="4681" math="0" shadow="0">
      <root>
        <mxCell id="0" />
        <mxCell id="1" parent="0" />
        <mxCell id="5PuOkMEc4jXzt8Er7Evs-9" value="" style="edgeStyle=orthogonalEdgeStyle;rounded=0;orthogonalLoop=1;jettySize=auto;html=1;" edge="1" parent="1" source="5PuOkMEc4jXzt8Er7Evs-1" target="5PuOkMEc4jXzt8Er7Evs-2">
          <mxGeometry relative="1" as="geometry" />
        </mxCell>
        <mxCell id="5PuOkMEc4jXzt8Er7Evs-1" value="default.general_menu(menu)" style="shape=process;whiteSpace=wrap;html=1;backgroundOutline=1;" vertex="1" parent="1">
          <mxGeometry x="350" y="120" width="240" height="70" as="geometry" />
        </mxCell>
        <mxCell id="5PuOkMEc4jXzt8Er7Evs-10" style="edgeStyle=orthogonalEdgeStyle;rounded=0;orthogonalLoop=1;jettySize=auto;html=1;entryX=0.5;entryY=0;entryDx=0;entryDy=0;" edge="1" parent="1" source="5PuOkMEc4jXzt8Er7Evs-2" target="5PuOkMEc4jXzt8Er7Evs-5">
          <mxGeometry relative="1" as="geometry" />
        </mxCell>
        <mxCell id="5PuOkMEc4jXzt8Er7Evs-2" value="length = LEN(list)" style="rounded=1;whiteSpace=wrap;html=1;" vertex="1" parent="1">
          <mxGeometry x="355" y="240" width="230" height="40" as="geometry" />
        </mxCell>
        <mxCell id="5PuOkMEc4jXzt8Er7Evs-3" value="" style="group" vertex="1" connectable="0" parent="1">
          <mxGeometry x="360" y="330" width="230" height="90" as="geometry" />
        </mxCell>
        <mxCell id="5PuOkMEc4jXzt8Er7Evs-4" value="" style="shape=hexagon;perimeter=hexagonPerimeter2;whiteSpace=wrap;html=1;fixedSize=1;" vertex="1" parent="5PuOkMEc4jXzt8Er7Evs-3">
          <mxGeometry width="230.00000000000003" height="90" as="geometry" />
        </mxCell>
        <mxCell id="5PuOkMEc4jXzt8Er7Evs-5" value="i" style="text;html=1;strokeColor=none;fillColor=none;align=center;verticalAlign=middle;whiteSpace=wrap;rounded=0;" vertex="1" parent="5PuOkMEc4jXzt8Er7Evs-3">
          <mxGeometry x="87.61904761904762" width="43.80952380952381" height="20" as="geometry" />
        </mxCell>
        <mxCell id="5PuOkMEc4jXzt8Er7Evs-6" value="0" style="text;html=1;strokeColor=none;fillColor=none;align=center;verticalAlign=middle;whiteSpace=wrap;rounded=0;" vertex="1" parent="5PuOkMEc4jXzt8Er7Evs-3">
          <mxGeometry x="10.952380952380953" y="35" width="43.80952380952381" height="20" as="geometry" />
        </mxCell>
        <mxCell id="5PuOkMEc4jXzt8Er7Evs-7" value="1" style="text;html=1;strokeColor=none;fillColor=none;align=center;verticalAlign=middle;whiteSpace=wrap;rounded=0;" vertex="1" parent="5PuOkMEc4jXzt8Er7Evs-3">
          <mxGeometry x="87.61904761904762" y="70" width="43.80952380952381" height="20" as="geometry" />
        </mxCell>
        <mxCell id="5PuOkMEc4jXzt8Er7Evs-8" value="&amp;lt;length" style="text;html=1;strokeColor=none;fillColor=none;align=center;verticalAlign=middle;whiteSpace=wrap;rounded=0;" vertex="1" parent="5PuOkMEc4jXzt8Er7Evs-3">
          <mxGeometry x="164.2857142857143" y="35" width="43.80952380952381" height="20" as="geometry" />
        </mxCell>
        <mxCell id="5PuOkMEc4jXzt8Er7Evs-16" style="edgeStyle=orthogonalEdgeStyle;rounded=0;orthogonalLoop=1;jettySize=auto;html=1;entryX=0.5;entryY=1;entryDx=0;entryDy=0;" edge="1" parent="1" source="5PuOkMEc4jXzt8Er7Evs-11" target="5PuOkMEc4jXzt8Er7Evs-15">
          <mxGeometry relative="1" as="geometry" />
        </mxCell>
        <mxCell id="5PuOkMEc4jXzt8Er7Evs-11" value="PRINT(str(i+1), &quot;-&quot;, list[i])" style="rounded=1;whiteSpace=wrap;html=1;" vertex="1" parent="1">
          <mxGeometry x="360" y="460" width="230" height="40" as="geometry" />
        </mxCell>
        <mxCell id="5PuOkMEc4jXzt8Er7Evs-12" value="" style="edgeStyle=orthogonalEdgeStyle;rounded=0;orthogonalLoop=1;jettySize=auto;html=1;" edge="1" parent="1" source="5PuOkMEc4jXzt8Er7Evs-4" target="5PuOkMEc4jXzt8Er7Evs-11">
          <mxGeometry relative="1" as="geometry" />
        </mxCell>
        <mxCell id="5PuOkMEc4jXzt8Er7Evs-17" style="edgeStyle=orthogonalEdgeStyle;rounded=0;orthogonalLoop=1;jettySize=auto;html=1;entryX=0;entryY=0.5;entryDx=0;entryDy=0;" edge="1" parent="1" source="5PuOkMEc4jXzt8Er7Evs-15" target="5PuOkMEc4jXzt8Er7Evs-4">
          <mxGeometry relative="1" as="geometry" />
        </mxCell>
        <mxCell id="5PuOkMEc4jXzt8Er7Evs-15" value="i" style="ellipse;whiteSpace=wrap;html=1;aspect=fixed;" vertex="1" parent="1">
          <mxGeometry x="240" y="355" width="40" height="40" as="geometry" />
        </mxCell>
        <mxCell id="5PuOkMEc4jXzt8Er7Evs-18" value="PRINT(&quot;\n&quot;)" style="rounded=1;whiteSpace=wrap;html=1;" vertex="1" parent="1">
          <mxGeometry x="402.5" y="550" width="145" height="40" as="geometry" />
        </mxCell>
        <mxCell id="5PuOkMEc4jXzt8Er7Evs-19" style="edgeStyle=orthogonalEdgeStyle;rounded=0;orthogonalLoop=1;jettySize=auto;html=1;entryX=0.5;entryY=0;entryDx=0;entryDy=0;" edge="1" parent="1" source="5PuOkMEc4jXzt8Er7Evs-4" target="5PuOkMEc4jXzt8Er7Evs-18">
          <mxGeometry relative="1" as="geometry">
            <Array as="points">
              <mxPoint x="640" y="375" />
              <mxPoint x="640" y="520" />
              <mxPoint x="475" y="520" />
            </Array>
          </mxGeometry>
        </mxCell>
      </root>
    </mxGraphModel>
  </diagram>
</mxfile>
